HIERARCHY
ROOT joint_Root
{
	OFFSET 0.0 0.0 0.0
	CHANNELS 6 Xposition Yposition Zposition Zrotation Xrotation Yrotation 
	JOINT Hips
	{
		OFFSET -0.726466 93.3139 -2.00062
		CHANNELS 6 Xposition Yposition Zposition Zrotation Xrotation Yrotation 
		JOINT Spine
		{
			OFFSET 15.7357 0.0 0.0
			CHANNELS 6 Xposition Yposition Zposition Zrotation Xrotation Yrotation 
			JOINT Chest
			{
				OFFSET 8.98455 -0.406207 0.0
				CHANNELS 6 Xposition Yposition Zposition Zrotation Xrotation Yrotation 
				JOINT Neck
				{
					OFFSET 16.3773 0.0 0.0
					CHANNELS 6 Xposition Yposition Zposition Zrotation Xrotation Yrotation 
					JOINT Head
					{
						OFFSET 6.45672 0.0 0.0
						CHANNELS 6 Xposition Yposition Zposition Zrotation Xrotation Yrotation 
						End Site
						{
							OFFSET 0.0 0.0 0.0
						}
					}
				}
				JOINT Shoulder_L
				{
					OFFSET 12.9942 -0.242716 4.98039
					CHANNELS 6 Xposition Yposition Zposition Zrotation Xrotation Yrotation 
					JOINT UpperArm_L
					{
						OFFSET 5.34809 0.0 0.0
						CHANNELS 6 Xposition Yposition Zposition Zrotation Xrotation Yrotation 
						JOINT LowerArm_L
						{
							OFFSET 24.3286 1.87007e-05 0.0
							CHANNELS 6 Xposition Yposition Zposition Zrotation Xrotation Yrotation 
							JOINT Hand_L
							{
								OFFSET 22.2916 0.0 0.0
								CHANNELS 6 Xposition Yposition Zposition Zrotation Xrotation Yrotation 
								End Site
								{
									OFFSET 0.0 0.0 0.0
								}
							}
						}
					}
				}
				JOINT Shoulder_R
				{
					OFFSET 12.9945 -0.242716 -4.98039
					CHANNELS 6 Xposition Yposition Zposition Zrotation Xrotation Yrotation 
					JOINT UpperArm_R
					{
						OFFSET -5.34813 0.0 0.0
						CHANNELS 6 Xposition Yposition Zposition Zrotation Xrotation Yrotation 
						JOINT LowerArm_R
						{
							OFFSET -24.3289 0.000322201 0.0
							CHANNELS 6 Xposition Yposition Zposition Zrotation Xrotation Yrotation 
							JOINT Hand_R
							{
								OFFSET -22.2915 -0.000108084 0.0
								CHANNELS 6 Xposition Yposition Zposition Zrotation Xrotation Yrotation 
								End Site
								{
									OFFSET 0.0 0.0 0.0
								}
							}
						}
					}
				}
			}
		}
		JOINT UpperLeg_L
		{
			OFFSET -2.19248 -6.46944 0.0
			CHANNELS 6 Xposition Yposition Zposition Zrotation Xrotation Yrotation 
			JOINT LowerLeg_L
			{
				OFFSET 39.0811 0.0 -1.23785e-05
				CHANNELS 6 Xposition Yposition Zposition Zrotation Xrotation Yrotation 
				JOINT Foot_L
				{
					OFFSET 40.9854 0.0 -1.26872e-05
					CHANNELS 6 Xposition Yposition Zposition Zrotation Xrotation Yrotation 
					JOINT Toes_L
					{
						OFFSET 11.7543 0.0 0.0
						CHANNELS 6 Xposition Yposition Zposition Zrotation Xrotation Yrotation 
						End Site
						{
							OFFSET 0.0 0.0 0.0
						}
					}
				}
			}
		}
		JOINT UpperLeg_R
		{
			OFFSET -2.19251 6.46944 0.0
			CHANNELS 6 Xposition Yposition Zposition Zrotation Xrotation Yrotation 
			JOINT LowerLeg_R
			{
				OFFSET -39.0811 -0.00228153 -0.0401928
				CHANNELS 6 Xposition Yposition Zposition Zrotation Xrotation Yrotation 
				JOINT Foot_R
				{
					OFFSET -40.9854 0.0 0.0
					CHANNELS 6 Xposition Yposition Zposition Zrotation Xrotation Yrotation 
					JOINT Toes_R
					{
						OFFSET -11.7543 0.0 0.0
						CHANNELS 6 Xposition Yposition Zposition Zrotation Xrotation Yrotation 
						End Site
						{
							OFFSET 0.0 0.0 0.0
						}
					}
				}
			}
		}
	}
}
MOTION
Frames:	4
Frame Time:	0.0333333
0.000000 0.000000 0.000000 0.000000 0.000000 -0.000000 0.181940 92.388000 -1.369560 88.032000 -1.273450 4.312570 15.735700 0.000005 -0.000001 82.567800 85.207100 -81.805200 8.984550 -0.406207 -0.000000 1.748610 -1.279250 1.543370 16.377300 -0.000001 -0.000001 3.027290 -1.292980 -0.929263 6.456720 -0.000001 -0.000000 5.364740 -1.619050 -1.479350 12.994200 -0.242716 4.980390 -89.698900 -0.918455 -71.848300 5.348090 -0.000007 -0.000001 -68.182900 42.503700 -15.305000 24.328600 0.000019 0.000005 0.219035 0.533554 -22.312100 22.291600 -0.000001 0.000005 6.565550 5.448310 -4.576880 12.994500 -0.242716 -4.980390 88.396900 5.180160 -72.777600 -5.348130 -0.000001 -0.000004 -65.785600 40.607900 -15.747900 -24.328900 0.000322 -0.000009 1.630600 5.983440 -15.283800 -22.291500 -0.000108 -0.000004 8.483010 5.389690 -2.605100 -2.192480 -6.469440 -0.000000 -176.040000 -8.446270 -3.009950 39.081100 -0.000007 -0.000012 -0.088492 0.209003 22.947800 40.985400 -0.000006 -0.000013 0.337858 2.833830 -65.808300 11.754300 -0.000000 0.000003 -0.000056 -0.000622 -16.601700 -2.192510 6.469440 -0.000001 179.151000 14.559800 179.849000 -39.081100 -0.002282 -0.040193 -0.063774 0.195166 18.972900 -40.985400 0.000008 0.000006 1.395500 7.781860 -64.587400 -11.754300 -0.000006 -0.000006 -0.007584 -0.084603 -20.017800
0.000000 0.000000 0.000000 0.000000 0.000000 -0.000000 0.200102 92.388200 -1.339720 88.029200 -1.354280 4.395610 15.735700 0.000005 -0.000001 83.009000 85.173000 -82.230000 8.984550 -0.406207 -0.000000 1.825400 -1.214690 1.575960 16.377300 -0.000001 -0.000001 2.959600 -1.307850 -0.904459 6.456720 -0.000001 -0.000000 5.379920 -1.693500 -1.513300 12.994200 -0.242716 4.980390 -89.807300 -0.584969 -71.766600 5.348090 -0.000007 -0.000001 -66.063500 42.012200 -16.653400 24.328600 0.000019 0.000005 0.899880 2.040060 -23.797300 22.291600 -0.000001 0.000005 4.005800 5.416660 -3.477780 12.994500 -0.242716 -4.980390 88.431200 5.081110 -72.816500 -5.348130 -0.000001 -0.000004 -65.828900 40.485000 -15.853600 -24.328900 0.000322 -0.000009 1.630140 5.935430 -15.396900 -22.291500 -0.000108 -0.000004 8.490450 5.391120 -2.651130 -2.192480 -6.469440 -0.000000 -176.040000 -8.465070 -2.877430 39.081100 -0.000007 -0.000012 -0.088942 0.210302 22.924900 40.985400 -0.000006 -0.000013 0.333220 2.747690 -65.830600 11.754300 -0.000000 0.000003 -0.000060 -0.000667 -16.603400 -2.192510 6.469440 -0.000001 179.123000 14.504300 179.946000 -39.081100 -0.002282 -0.040193 -0.061275 0.187819 18.980300 -40.985400 0.000008 0.000006 1.490330 7.824360 -64.620100 -11.754300 -0.000006 -0.000006 -0.007559 -0.084395 -20.009300
0.000000 0.000000 0.000000 0.000000 0.000000 -0.000000 0.192523 92.378400 -1.342950 88.037000 -1.332940 4.400690 15.735700 0.000005 -0.000001 83.300000 85.166900 -82.501200 8.984550 -0.406207 -0.000000 1.843200 -1.168360 1.614980 16.377300 -0.000001 -0.000001 2.965260 -1.405960 -0.878685 6.456720 -0.000001 -0.000000 5.317620 -1.856980 -1.603220 12.994200 -0.242716 4.980390 -89.907000 -0.280824 -71.666400 5.348090 -0.000007 -0.000001 -62.907900 41.155400 -18.738900 24.328600 0.000019 0.000005 1.637800 3.319220 -26.278600 22.291600 -0.000001 0.000005 2.009700 5.393600 -2.728600 12.994500 -0.242716 -4.980390 88.482600 4.928910 -72.865600 -5.348130 -0.000001 -0.000004 -65.959800 40.384000 -15.872800 -24.328900 0.000322 -0.000009 1.627540 5.853140 -15.578500 -22.291500 -0.000108 -0.000004 8.496170 5.390110 -2.618590 -2.192480 -6.469440 -0.000000 -176.031000 -8.497180 -2.911520 39.081100 -0.000007 -0.000012 -0.089474 0.210873 22.991600 40.985400 -0.000006 -0.000013 0.342621 2.824620 -65.858200 11.754300 -0.000000 0.000003 -0.000055 -0.000616 -16.601400 -2.192510 6.469440 -0.000001 179.108000 14.537300 179.916000 -39.081100 -0.002282 -0.040193 -0.063392 0.192925 19.075800 -40.985400 0.000008 0.000006 1.550990 7.836720 -64.688100 -11.754300 -0.000006 -0.000006 -0.007896 -0.087181 -20.123100
0.000000 0.000000 0.000000 0.000000 0.000000 -0.000000 0.147618 92.388700 -1.352540 88.041700 -1.158180 4.415630 15.735700 0.000005 -0.000001 83.366700 85.160700 -82.545900 8.984550 -0.406207 -0.000000 1.856940 -1.159650 1.658810 16.377300 -0.000001 -0.000001 2.908320 -1.472420 -0.966577 6.456720 -0.000001 -0.000000 5.399490 -2.055450 -1.590710 12.994200 -0.242716 4.980390 -89.929800 -0.211349 -71.610900 5.348090 -0.000007 -0.000001 -59.259300 39.514100 -21.354500 24.328600 0.000019 0.000005 2.262040 3.993360 -29.559400 22.291600 -0.000001 0.000005 1.192590 5.379050 -2.267250 12.994500 -0.242716 -4.980390 88.520100 4.809040 -72.872800 -5.348130 -0.000001 -0.000004 -65.970200 40.399800 -15.975600 -24.328900 0.000322 -0.000009 1.590370 5.684480 -15.668300 -22.291500 -0.000108 -0.000004 8.382420 5.387640 -2.539510 -2.192480 -6.469440 -0.000000 -176.008000 -8.394830 -2.890150 39.081100 -0.000007 -0.000012 -0.088808 0.210005 22.922800 40.985400 -0.000006 -0.000013 0.330854 2.921890 -65.802900 11.754300 -0.000000 0.000003 -0.000060 -0.000665 -16.603300 -2.192510 6.469440 -0.000001 179.131000 14.672700 179.976000 -39.081100 -0.002282 -0.040193 -0.061190 0.187485 18.988300 -40.985400 0.000008 0.000006 1.550570 7.778490 -64.648300 -11.754300 -0.000006 -0.000006 -0.007809 -0.086466 -20.093800
